<?xml version="1.0" encoding="UTF-8" standalone="no"?>
<!-- Generator: Adobe Illustrator 19.0.0, SVG Export Plug-In . SVG Version: 6.00 Build 0)  -->

<svg
   xmlns:dc="http://purl.org/dc/elements/1.1/"
   xmlns:cc="http://creativecommons.org/ns#"
   xmlns:rdf="http://www.w3.org/1999/02/22-rdf-syntax-ns#"
   xmlns:svg="http://www.w3.org/2000/svg"
   xmlns="http://www.w3.org/2000/svg"
   xmlns:sodipodi="http://sodipodi.sourceforge.net/DTD/sodipodi-0.dtd"
   xmlns:inkscape="http://www.inkscape.org/namespaces/inkscape"
   version="1.1"
   id="Calque_1"
   x="0px"
   y="0px"
   viewBox="0 0 950 950"
   xml:space="preserve"
   inkscape:version="0.48.4 r9939"
   width="100%"
   height="100%"
   sodipodi:docname="logo.svg"><metadata
     id="metadata33"><rdf:RDF><cc:Work
         rdf:about=""><dc:format>image/svg+xml</dc:format><dc:type
           rdf:resource="http://purl.org/dc/dcmitype/StillImage" /><dc:title></dc:title></cc:Work></rdf:RDF></metadata><defs
     id="defs31" /><sodipodi:namedview
     pagecolor="#ffffff"
     bordercolor="#666666"
     borderopacity="1"
     objecttolerance="10"
     gridtolerance="10"
     guidetolerance="10"
     inkscape:pageopacity="1"
     inkscape:pageshadow="2"
     inkscape:window-width="1091"
     inkscape:window-height="781"
     id="namedview29"
     showgrid="false"
     inkscape:zoom="0.20959147"
     inkscape:cx="-135.39831"
     inkscape:cy="563"
     inkscape:window-x="0"
     inkscape:window-y="26"
     inkscape:window-maximized="0"
     inkscape:current-layer="Calque_1" /><path
     inkscape:connector-curvature="0"
     id="path5"
     d="m 859.9,560.597 c -1.8,7 -3.8,13.9 -5.3,20.9 -9,42.4 -18,84.9 -27,127.4 -0.2,0.8 -0.4,1.5 -0.9,3.3 -5.7,-9.7 -10.9,-18.6 -16.5,-28.3 -5.2,5.9 -10.1,11.3 -14.8,16.8 -51.4,59.1 -112.9,103.8 -186.3,132 -36.6,14 -73.2,28.1 -109.6,42.6 -19,7.6 -37.6,8.3 -56.7,0.3 -35.7,-15 -72.2,-28.1 -107.3,-44.4 -52.2,-24.3 -101.7,-53.4 -143.2,-94.2 -16.5,-16.2 -32,-33.4 -47.9,-50.2 -1.6,-1.7 -3.1,-3.4 -5,-5.5 -5.5,9.4 -10.6,18.2 -16.6,28.5 -0.8,-3.7 -1.2,-6 -1.7,-8.3 -10,-47.2 -19.9,-94.4 -29.900002,-141.5 -0.2,-1.1 -0.8,-2.2 -1.2,-3.2 0,-0.3 0,-0.7 0,-1 1.2,0.6 2.5,1 3.5,1.8 5.4,4.5 11.600002,6.4 18.700002,7.2 25.1,2.9 48.7,10.4 70,24.3 2.3,1.5 5.1,2.6 7.8,3.2 1.2,0.3 3.4,-0.5 4.2,-1.5 2.7,-3.4 2.2,-17.8 -0.7,-21.2 -10.8,-12.7 -24.3,-20.4 -41.4,-19.2 -10.6,0.8 -21,2.9 -32.4,4.5 11.7,-9.8 21.7,-20.6 35.3,-26.8 11.8,-5.4 23.9,-7 36.4,-2.9 4.5,1.5 8.8,3.6 13.9,5.7 -0.3,-4 -1,-7.6 -0.9,-11.1 0.2,-4.3 -1.5,-5.2 -5.5,-5.2 -15.5,0.2 -31,0.2 -46.5,-0.2 -8.2,-0.2 -14,-4.7 -16,-12.5 -1.2,-4.7 -1.6,-9.9 -1.1,-14.7 1.2,-11.5 8.1,-17.4 19.7,-17.5 14.8,-0.1 29.7,0 44.5,0 1.8,0 3.6,0 5.6,0 6.6,-57 28.8,-106.7 66.4,-149.7 -10.5,-10.5 -20.7,-20.5 -30.7,-30.8 -4,-4.1 -7.4,-8.9 -11.2,-13.2 -0.8,-0.9 -2.5,-1.5 -3.7,-1.5 -28.5,0.1 -57,0.2 -85.4,0.6 -3.3,0 -5.2,-0.9 -7,-3.4 -12.5,-17 -25.1,-34 -37.700002,-51 -0.6,-0.9 -1.1,-1.9 -2.1,-3.7 108.100002,0 215.500002,0 322.700002,0 0.1,-0.8 0.2,-1.1 0.1,-1.1 -1,-0.9 -1.9,-1.8 -2.9,-2.7 -25.3,-23.1 -34.9,-51.5 -25.5,-84.4 9.3,-32.400001 31.9,-51.700001 65.2,-58.100001 2.6,-0.5 5.2,-1.3 7.8,-2 3.3,0 6.7,0 10,0 1.1,0.4 2.2,1.1 3.4,1.2 22,2.7 40.2,12.3 54.4,29.3 27.9,33.400001 24.3,82.200001 -8.2,110.900001 -2.3,2 -4.7,3.9 -7.1,5.9 0.1,0.4 0.2,0.7 0.3,1.1 114,0 227.9,0 342,0 -0.1,1 -0.1,1.4 -0.2,1.7 -13.4,18.1 -26.7,36.2 -40.2,54.1 -0.9,1.3 -3.3,2.1 -5,2 -23.1,-0.3 -46.3,-0.7 -69.4,-1.1 -5.6,-0.1 -11.2,0 -17,0 0.4,7.5 -2.6,12 -7,16 -4.3,3.9 -8.5,8 -12.6,12.1 -8,8.2 -15.9,16.5 -24,25.1 0.6,0.8 1.6,2.1 2.6,3.4 33,41.4 52.3,88.5 57.5,141.2 0.5,5.2 2.3,6.1 6.9,6 15.3,-0.3 30.7,-0.2 46,-0.1 8.6,0 14.5,4 17.3,11.8 2.5,7 2.6,14 0.1,21 -2.8,7.8 -8.8,11.9 -17.2,11.9 -15.7,0 -31.3,0 -47,0 -1.8,0 -3.6,0 -5.6,0 -0.7,5.8 -1.3,11.1 -2,17 1.5,-0.6 2.1,-0.8 2.6,-1.2 33.6,-18.7 61.1,-1.1 84.7,24.3 -7.3,-1.3 -14.1,-2.6 -21,-3.8 -18,-3.1 -33.9,0.6 -47.4,13.7 -4.7,4.6 -7.3,9.4 -6.4,15.8 0.6,3.8 1.7,7.5 2.5,11.3 3.9,-1.1 8.2,-1.5 11.5,-3.5 19.8,-12.7 41.6,-19.8 64.7,-23.3 4.1,-0.6 8.4,-1.1 11.9,-3.1 6.2,-3.5 11.9,-8 17.8,-12 -0.1,1.2 -0.1,2.2 -0.1,3.2 z m -387.5,195 c 23.4,0 46.4,-3.1 69,-9.3 110,-30.4 191.6,-133.7 188,-254.6 -1.2,-39.4 -10.4,-76.7 -29,-111.5 -6.7,-12.6 -14.4,-24.8 -23,-36.2 -8.6,-11.4 -18.3,-22.1 -28.6,-31.9 -10.4,-9.8 -21.7,-18.8 -33.5,-26.7 -11.8,-7.9 -24.4,-15 -37.4,-20.8 -12.8,-5.8 -26.3,-10.5 -39.9,-14.1 -13.8,-3.6 -28,-6.1 -42.2,-7.4 -14.2,-1.3 -28.7,-1.4 -42.9,-0.3 -14.2,1.1 -28.5,3.4 -42.3,6.8 -13.8,3.4 -27.4,8.1 -40.5,13.8 -12.7,5.5 -25.1,12 -36.7,19.5 -90.5,58.8 -135.3,165.5 -111.4,272.4 26,116.9 130.7,200.3 250.4,200.3 z m 2.8,77.3 c 1.6,-0.4 2.8,-0.6 3.8,-0.9 77.2,-23.2 154.4,-46.4 231.5,-69.7 2.1,-0.6 4.2,-1.9 6,-3.3 34.2,-27.1 64.1,-58.6 91.8,-92.3 1.1,-1.3 2.2,-2.6 3.6,-4.1 3.3,5.4 6.1,10.2 9.7,16.2 6.7,-31.5 13,-61.6 19.4,-91.8 -0.4,-0.3 -0.7,-0.5 -1.1,-0.8 -18.4,12.6 -36.8,25.1 -55.3,37.7 9.7,11.5 11.2,17 4.1,28.3 -5.8,9.4 -12.6,18.8 -20.8,25.9 -14.7,12.6 -31,23.5 -46.5,35.2 -1.5,1.1 -3.6,3.3 -3.4,4.6 1.9,10.8 -3.9,17.9 -11.5,23.8 -9.1,7.1 -18.2,6.4 -26.3,-1.8 -2.5,-2.5 -4.3,-2.6 -7.3,-1.1 -7.9,3.9 -15.9,7.7 -24,11.1 -22,9.2 -44.3,17.4 -68.2,20 -14.5,1.6 -28.6,1.1 -40.9,-8.6 -1.2,-1 -3.8,-0.6 -5.6,-0.3 -11.5,1.8 -23,3.9 -34.5,5.4 -8,1.1 -16.2,1.3 -24.5,1.9 0,21.5 0,42.7 0,64.6 z m -12.8,-64.7 c -0.8,-0.2 -1.3,-0.4 -1.8,-0.5 -17.4,-2.5 -34.8,-5 -52.3,-7.4 -1.7,-0.2 -3.7,0.6 -5.4,1.2 -4.8,1.9 -9.3,4.6 -14.2,5.8 -14.3,3.5 -28.5,0.8 -42.4,-2.6 -27.4,-6.8 -53.1,-18.1 -78.3,-30.8 -2.6,-1.3 -4.4,-1.9 -7,0.5 -7.6,7.4 -15.4,8.4 -23.5,3.6 -10.4,-6.1 -16.3,-16.8 -13.9,-25.9 0.8,-3 0.1,-4.3 -2.3,-6 -11,-7.8 -22.1,-15.5 -32.5,-24 -11.1,-9.1 -21.2,-19.3 -28,-32.2 -6,-11.3 -5.3,-17.6 3,-27.2 0.4,-0.5 0.6,-1.1 1,-1.8 -18.5,-12.7 -36.9,-25.2 -56.5,-38.6 6.7,31.7 13.1,62 19.8,93.6 3.7,-6.2 6.6,-11.1 9.8,-16.3 1.9,2.3 3.4,4.1 4.8,5.9 26,31.6 54.1,61.1 85.9,86.9 3.3,2.7 7.2,4.9 11.2,6.2 72.2,24.9 144.5,49.7 216.8,74.5 1.8,0.6 3.7,1.1 5.9,1.8 -0.1,-22.5 -0.1,-44.4 -0.1,-66.7 z m 369.8,-538.4 c -111.9,0 -222.8,0 -333.6,0 0.5,0.9 1.1,1 1.7,1.1 41.2,4.4 79.4,17.4 114.7,39.2 1.6,1 4.1,1.3 6.1,1 15.9,-1.9 31.7,-4.3 47.6,-5.7 7.2,-0.6 13,-2.4 17.7,-8.2 3.8,-4.6 9.3,-7.4 15.1,-5.6 5.2,1.6 9.7,5.2 14.6,7.9 1.9,1 4,2.5 6,2.5 27.5,0.3 55,0.5 82.4,0.5 1.6,0 3.8,-0.8 4.7,-1.9 7.6,-9.9 15,-20 23,-30.8 z m -714.9,-0.2 c 7.3,9.9 14.1,18.9 20.6,28.1 2.5,3.6 5.1,5.6 9.8,4.9 3.9,-0.6 8,-0.4 12,-0.4 22.1,0 44.3,-0.1 66.4,0 3,0 4.6,-1.1 6.5,-3.4 2.9,-3.6 6.1,-7.1 9.9,-9.6 8.5,-5.7 16.6,-4.5 23.9,2.7 3.9,3.9 7.6,7.9 11.7,11.6 1.7,1.6 4.1,2.9 6.4,3.3 11.9,2.2 23.9,4.3 35.9,6.1 2.5,0.4 5.7,-0.1 7.8,-1.5 34,-21.4 70.9,-34.7 110.8,-39.7 1.8,-0.2 3.5,-0.6 5.3,-0.9 -0.1,-0.4 -0.1,-0.7 -0.2,-1.1 -108.5,-0.1 -217.1,-0.1 -326.8,-0.1 z m 371.4,-15 c 30.4,-7 51.5,-42.8 45.4,-76.5 -6.5,-35.9 -40.1,-60.200001 -77.5,-55.800001 -34.9,4.1 -62.4,37.400001 -59.8,72.500001 2.1,28.3 27,60.8 47,60.5 0,-6 -0.3,-12 0.1,-17.9 0.3,-4 -1,-6.2 -4.3,-8.4 -18.7,-12.8 -25.1,-37 -15.7,-57.5 9.3,-20.1 31.9,-31.2 53.1,-25.6 18.7,5 30.8,17.2 34.5,36.2 3.8,19.4 -3.1,34.9 -19.2,46.4 -1.5,1 -3.3,2.8 -3.4,4.3 -0.4,7.1 -0.2,14.3 -0.2,21.8 z m -210.2,570.5 c -0.2,0.4 -0.3,0.8 -0.5,1.2 0.6,0.5 1.2,1 1.9,1.4 20.6,11.1 40.7,23.5 62,33 35.4,15.7 71.6,29.5 107.4,44.2 14.5,5.9 28.8,5.5 43.2,-0.2 31.5,-12.4 63,-24.9 94.8,-36.8 28.2,-10.6 55.8,-22.5 81.9,-37.7 1.2,-0.7 2.4,-1.6 3.6,-2.4 -1.9,-0.7 -3.1,-0.4 -4.4,0 -66.5,20 -133,40 -199.6,59.9 -2.4,0.7 -5.3,0.8 -7.6,0 -51.6,-17.6 -103.1,-35.3 -154.6,-53.1 -9.3,-3.2 -18.7,-6.3 -28.1,-9.5 z m 503.3,-239 c 0,-0.4 0,-0.9 0,-1.3 -1.9,-0.5 -3.8,-1.1 -5.7,-1.4 -13.8,-2.3 -25.7,1.9 -36,10.9 -2.7,2.3 -5.1,5.8 -6,9.2 -9.2,36.1 -24.9,69 -47.5,98.6 -0.9,1.1 -1.6,2.4 -2.8,4.4 4.2,1.8 7.7,3.7 11.4,4.9 10.2,3.1 17.7,-0.1 22.4,-9.5 1.9,-3.7 3.2,-7.7 4.4,-11.6 5.7,-19.4 23,-27.7 41.5,-19.3 5.9,2.7 11,7.1 16.6,10.8 1.1,-5.4 -3,-7.9 -7,-10 -4,-2.1 -8.3,-3.6 -13.2,-5.6 17.8,-12.2 34.9,-23.8 52.2,-35.7 -0.9,-0.5 -1.2,-0.8 -1.5,-0.8 -0.8,0.1 -1.6,0.3 -2.4,0.5 -12.4,3.5 -24.1,8.6 -35,15.5 -3.5,2.2 -7.2,4.3 -11.1,5.6 -10.9,3.6 -19.7,-1 -21.8,-12.2 -1.2,-6.6 -0.9,-13.5 -0.3,-20.3 0.3,-3.2 2,-6.7 4.1,-9.2 9.3,-11.4 20.9,-19.4 35.5,-22.6 0.9,-0.3 1.5,-0.7 2.2,-0.9 z m -590,78.4 c 17,-1.9 28.4,6.2 33.7,24.5 1.6,5.6 4,11.4 7.4,16.1 6.5,9.1 20.3,8.8 27.8,-0.1 -0.6,-0.9 -1.2,-1.9 -1.9,-2.8 -24.8,-32.5 -41.6,-68.7 -49.8,-108.8 -0.3,-1.4 -0.7,-3 -1.5,-4.2 -8.2,-12.1 -30.1,-17.7 -44.2,-11.1 1.2,0.4 2.1,0.7 3,0.9 15.7,3.4 27.9,12 37.8,24.4 0.8,1 1.8,2.1 2.1,3.3 2,9.4 3,18.8 -0.7,28 -3,7.5 -9.2,11.3 -17.1,9.4 -5.5,-1.4 -11,-3.9 -15.8,-6.9 -12.9,-7.9 -26.7,-13.3 -41.4,-16.9 -0.7,-0.2 -1.5,0.1 -3.6,0.2 11.3,7.7 21.5,14.8 31.7,21.8 10.4,7.2 20.8,14.2 32.5,22.2 z m 297.5,-450.1 c 9.8,-6.8 13.5,-21.7 8.8,-35.1 -4.9,-14.2 -19.3,-23.5 -34.7,-22.5 -15.2,1 -27.7,12.4 -31.1,27.2 -2.5,11.2 3.1,28.1 10.9,31.3 4.2,-16.8 10.1,-22.7 22.6,-23 12.9,-0.1 19.1,5.7 23.5,22.1 z m 199.8,508.1 c -0.2,0.3 -0.4,0.6 -0.6,0.9 6.2,6.6 12.5,13.1 18.6,19.9 2,2.3 3.6,2.2 5.9,0.7 4.3,-2.9 8.8,-5.5 13,-8.4 15.6,-10.6 30.7,-21.8 43.1,-36.2 1.3,-1.5 2.3,-4.3 1.9,-6.1 -1.7,-7.1 -12.3,-13.6 -21.5,-13.5 -7.9,0 -13.3,4.7 -15.9,13.3 -1.5,4.9 -3,9.9 -5.3,14.4 -6.5,12.8 -18.1,18.6 -31.7,16.6 -2.5,-0.3 -5,-1 -7.5,-1.6 z m -44.5,23.3 c -26,21.8 -55.9,38.1 -88.6,49.8 8.5,3.4 17.1,3.1 25.6,1.9 29.8,-4.2 57.2,-15.7 84.1,-28.6 0.6,-0.3 1.3,-0.5 1.5,-0.6 -7.9,-7.8 -15,-14.9 -22.6,-22.5 z m -371.2,17.3 c 29.6,14.8 58.8,27.6 90.7,32.4 7.3,1.1 15,0.2 22.5,0.2 0.2,-0.5 0.3,-1 0.5,-1.5 -33.6,-11.6 -64,-28.8 -91,-52.3 -7.7,7 -14.9,13.8 -22.7,21.2 z m -24.2,-38.7 c -20.4,-0.3 -29.2,-12.2 -34.5,-28.2 -0.6,-1.9 -1,-3.8 -1.6,-5.8 -2,-6.8 -5.6,-12.2 -13.1,-13.5 -8.3,-1.4 -15.5,1.1 -20.9,7.7 -3,3.6 -3.3,7.1 0.1,11 14.9,16.9 32.7,30.1 51.6,42.1 1,0.6 3.2,0.8 3.9,0.1 4.6,-3.9 8.9,-8.2 14.5,-13.4 z m 458.4,-410.1 c -0.1,-1 -0.3,-1.5 -0.2,-2 0.3,-4.3 -1.8,-6.8 -5.6,-8.4 -3.8,-1.6 -5.9,0.9 -8.1,3.1 -4.4,4.3 -9,8.4 -13.3,12.8 -7.3,7.4 -14.5,15 -21.1,21.9 4.1,4.3 8.5,9 13.2,14.1 13.1,-13.3 27.3,-25.5 40.6,-40.2 -2.9,-0.7 -4.1,-0.9 -5.5,-1.3 z m -52.3,423.6 c 10.7,10.7 21.5,21.5 32.3,32.3 5.2,5.2 8.3,5.4 13.4,0.3 7.3,-7.3 6.5,-10.2 0.6,-15.2 -0.6,-0.5 -1.1,-1.2 -1.7,-1.8 -9.8,-10.4 -19.6,-20.8 -29.4,-31.3 -5.1,5.2 -9.9,10.2 -15.2,15.7 z m 87.5,-187.9 c 17.6,0 34.8,0.1 52.1,-0.2 1.4,0 3.7,-2 4.1,-3.5 0.8,-3.1 1.1,-6.5 0.9,-9.8 -0.4,-4.6 -3,-6.9 -8,-6.8 -10.3,0.3 -20.6,0.1 -30.9,0.1 -5.9,0 -11.9,0 -18.1,0 -0.1,6.9 -0.1,13.1 -0.1,20.2 z m -449.7,-214.4 c -11.7,-11.6 -23.4,-23.1 -34.9,-34.9 -3.4,-3.5 -6.5,-3.3 -10.1,-0.9 -5.5,3.8 -7.3,7.2 -5,11.4 1.8,3.4 4,6.8 6.6,9.6 9.6,9.9 19.4,19.6 29,29.2 4.9,-4.9 9.4,-9.4 14.4,-14.4 z m -90.2,186.3 c -17,0 -33.6,-0.1 -50.2,0.2 -1.8,0 -4.3,2.5 -5,4.5 -1,2.5 -0.9,5.5 -0.7,8.3 0.4,5.5 2.3,7.1 7.9,7.2 10.5,0 20.9,0 31.4,0 5.4,0 10.9,0 16.6,0 0,-6.9 0,-13.2 0,-20.2 z m 69,197.9 c -11.6,10.9 -23.3,21.7 -34.7,32.9 -1.3,1.3 -1.6,5.2 -0.7,7 1.6,2.9 4.3,5.4 7,7.5 2.8,2.1 5.8,1.8 8.5,-0.9 6.7,-6.5 13.6,-12.8 20.3,-19.2 4.7,-4.4 9.3,-8.8 14.1,-13.3 -4.9,-4.7 -9.4,-9.1 -14.5,-14 z m 204.2,-463 c 0,-15.2 0.3,-30.1 -0.3,-45 -0.1,-2.3 -3.3,-5.5 -5.8,-6.4 -7.8,-2.9 -13.6,1.4 -13.9,9.7 -0.3,9 -0.2,18 -0.2,26.9 0,4.9 0,9.8 0,14.8 7.1,0 13.4,0 20.2,0 z m 172.2,77.8 c 5,-5.5 9.8,-10.8 15.1,-16.7 -10,1.2 -19.6,2.4 -29.3,3.6 -0.1,0.4 -0.3,0.9 -0.4,1.3 4.6,3.7 9.3,7.5 14.6,11.8 z M 310,283.297 c -4.4,-0.8 -8.4,-1.4 -13.2,-2.3 6.2,8.9 7.1,9.1 13.2,2.3 z"
     style="fill:#ff4d59;fill-opacity:1" /><path
     inkscape:connector-curvature="0"
     id="path21"
     d="m 240.7,498.497 c 0,-128.6 104.1,-232.4 233.5,-231.8 143,0.6 232.9,121 230.5,236.9 -2.6,124.6 -104.7,227.4 -233.3,227.2 -126.9,-0.1 -230.7,-104.6 -230.7,-232.3 z m 334,119.5 c 14.3,-4.4 27.4,-10.5 39.4,-19 7.8,-5.5 13.6,-12.5 17,-21.6 2.9,-7.8 6.5,-15.3 9.6,-22.9 2,-4.9 4.5,-9.7 5.4,-14.8 1.4,-7.7 1.7,-15.5 2.2,-23.3 0.5,-7.5 0.9,-14.9 1.2,-22.4 0.2,-5.7 0.9,-11.6 0,-17.2 -1.3,-7.7 -3.8,-15.1 -5.9,-22.6 -2,-7 -4.2,-14 -6.3,-21 -1.4,-4.4 -2.1,-9.2 -4.3,-13.1 -4.1,-7 -8.9,-13.6 -13.7,-20.2 -4.1,-5.6 -9.6,-10.5 -12.7,-16.7 -4.5,-9 -11.4,-15 -19.3,-20.3 -9.1,-6.1 -19.4,-10.8 -27.5,-18 -8.7,-7.7 -18.6,-11.3 -29.3,-13.9 -10,-2.4 -20.4,-3.6 -30,-7.1 -8,-2.9 -15.8,-3.6 -23.9,-3.1 -4.3,0.3 -8.6,0.7 -12.9,1.2 -8.9,1 -17.8,2.1 -26.7,3.3 -5.2,0.7 -10.7,0.8 -15.5,2.6 -7.8,2.9 -15.1,6.8 -22.6,10.4 -6.1,3 -12.2,6.1 -18.2,9.3 -5.2,2.8 -10.8,5.2 -15.3,8.9 -6.1,5.1 -11.4,11.1 -17,16.9 -4.7,4.9 -9.4,9.9 -13.9,15 -4,4.5 -8.6,8.8 -11.6,14 -4,6.8 -6.8,14.4 -10.1,21.7 -2.9,6.5 -5.8,13 -8.6,19.6 -1.6,3.6 -4,7.2 -4.4,10.9 -1.4,14.9 -0.8,30.1 -3.6,44.7 -2.7,13.9 0.5,26.3 4.2,39.1 2.4,8.1 5.9,16 7.3,24.3 1.2,7.1 3.5,13.5 7.5,19.3 9.3,13.3 18.8,26.6 28.2,39.8 0.3,0.5 0.9,0.8 1.4,1.2 14.7,-13.9 32.7,-11 50.2,-10.7 0.5,-2.9 1.2,-5.5 1.5,-8.2 0.3,-3.9 2.1,-5 6.1,-5.2 7.6,-0.4 15.3,-1.1 22.8,-2.6 36.4,-7.5 71.4,-19.8 106.2,-32.5 1.9,-0.7 3.7,-2.7 4.8,-4.5 13.4,-22.8 26.7,-45.7 40,-68.5 6.6,-11.3 13.2,-22.6 20,-34.4 7.1,4.4 13.8,8.5 20.6,12.7 -0.5,1 -0.8,1.6 -1,2.2 -15.6,33.2 -31.2,66.5 -46.9,99.7 -1.5,3.2 -1.1,5 1.8,6.9 4.2,2.7 8.3,5.5 12.2,8.6 8.4,6.7 8.8,10.8 2.1,19.1 -3.5,4.2 -7,8.3 -10.5,12.4 z m 21.5,6.1 c -1.1,0.1 -1.6,0.1 -2,0.2 -15.6,5.2 -31.1,10.7 -46.7,15.7 -19.3,6.1 -39.1,6.9 -58.8,3.3 -29.5,-5.3 -58.7,-11.8 -88.1,-17.5 -12.3,-2.4 -24.8,-3.1 -37.2,0 -3.3,0.8 -6.2,3 -10.5,5.2 7.4,4.9 13.2,8.8 19,12.6 5.8,3.9 11.6,7.8 17.4,11.6 3.2,2.1 6.1,4.7 9.6,6.1 5.7,2.3 11.6,4 17.6,5.4 10,2.5 20,4.7 30.1,7 5.1,1.1 10.3,2.8 15.5,2.9 6.8,0.2 13.6,-0.7 20.4,-1.4 8.6,-0.9 17.2,-2 25.7,-3.2 5.7,-0.8 11.7,-0.9 16.9,-3 10.9,-4.6 21.2,-10.3 31.8,-15.5 3,-1.5 6.1,-2.6 9,-4.1 4.6,-2.5 9.6,-4.6 13.6,-7.9 5.3,-4.3 9.8,-9.5 14.6,-14.3 0.7,-0.7 1.2,-1.7 2.1,-3.1 z m 2.2,-144.6 c -0.3,-0.2 -0.6,-0.3 -1,-0.5 -0.9,1.3 -1.8,2.5 -2.6,3.9 -16.5,28.3 -32.9,56.6 -49.3,85 -1.9,3.3 -4.2,5.6 -8,6.8 -9.8,3.2 -19.3,7.1 -29.1,10.3 -32,10.6 -63.9,21.7 -97.6,26 -1.1,0.1 -2.1,1.1 -3.2,1.7 1,0.8 1.9,2.1 3,2.3 24.1,5.1 48.2,9.8 72.2,15 15.2,3.3 30.3,2.6 45.7,2 24,-1 34.2,-19.7 47.9,-35.2 -5.8,-4.1 -11.2,-7.7 -16.3,-11.5 -6.8,-5.1 -7.5,-8.2 -3.9,-15.8 11.8,-25.1 23.6,-50.2 35.4,-75.3 2.4,-4.9 4.5,-9.9 6.8,-14.7 z m 36.7,119.6 c 3.9,1.4 7.7,2.6 11.3,4.1 10.3,4.2 20.1,0.7 24.5,-9.4 4.3,-9.9 8.1,-20 11.8,-30.1 1.9,-5.2 3,-10.7 4.4,-16.1 -5.4,0.8 -10.3,2.7 -14.8,2.1 -12,-1.7 -18.3,5.2 -22.6,14.2 -5.5,11.3 -9.8,23.4 -14.6,35.2 z m -151.5,-320.8 c 2,7.1 3.2,12.5 5.1,17.8 1.3,3.6 2.5,8 5.2,10.2 4.3,3.4 9.6,5.9 14.9,7.4 10,2.9 20.4,4.8 30.6,7.1 1.4,0.3 2.8,0.5 3.8,0.7 0.8,-4.5 1.5,-8.6 2.3,-12.6 2.1,-10.6 -2.9,-18.8 -13.3,-21.7 -3,-0.8 -6.1,-1.9 -9.2,-2.4 -13,-2.3 -26.1,-4.4 -39.4,-6.5 z m 178,192.8 c 4.3,-1.5 8.9,-3 13.3,-4.8 7.6,-3 13.8,-11.7 11.8,-17.6 -5.2,-15.6 -10.9,-31 -16.5,-46.4 -0.5,-1.4 -1.5,-2.6 -2.2,-3.8 -3.5,3.9 -6.1,8.3 -9.8,10.6 -10.1,6.5 -10.6,15.9 -8.2,25.6 3.1,12.5 7.7,24.4 11.6,36.4 z m -351.3,-72.8 c -3.8,-1.4 -7.5,-2.6 -11.2,-4.1 -10.5,-4.2 -20.2,-1 -24.4,9.3 -5.5,13.5 -10.1,27.3 -15,41.1 -0.6,1.7 -0.7,3.6 -1,5 5.7,-0.6 10.8,-2 15.8,-1.6 7.1,0.6 12.4,-1.9 16.5,-7.2 2.5,-3.2 4.6,-6.9 6.2,-10.6 4.5,-10.7 8.8,-21.5 13.1,-31.9 z m -33.3,200.6 c 3.9,-4.1 7.1,-8.7 11.4,-11.8 5.6,-4.1 8.2,-9.3 7.6,-15.7 -0.5,-5.7 -2,-11.4 -3.5,-16.9 -2.7,-9.6 -5.9,-19.1 -8.8,-28.4 -3.6,1.4 -6.8,2.9 -10.1,3.9 -12.3,3.7 -17.1,11.6 -13.9,23.8 4.1,15.8 9.8,30.9 17.3,45.1 z m 185,120.3 c -2,-6.4 -4.5,-11.1 -4.8,-15.9 -0.6,-8.5 -5.1,-13.5 -12.2,-16.7 -3.9,-1.8 -8.2,-2.7 -12.3,-3.7 -10.3,-2.4 -20.6,-4.7 -30.6,-6.9 -0.8,4.2 -1.5,8.3 -2.3,12.3 -2.1,10.5 3,19.1 13.1,21.9 2.7,0.8 5.4,1.7 8.2,2.2 13.4,2.4 26.9,4.5 40.9,6.8 z m -175.9,-259 c -3.8,0 -7.1,0.4 -10.3,-0.1 -5.8,-0.8 -10.8,0.8 -15.6,3.8 -3.6,2.2 -6,5 -6,9.6 0,16.1 -0.1,32.2 -0.2,48.3 0,1.5 0.6,3 0.7,3.6 6.2,-2.7 12,-4.9 17.5,-7.7 2.7,-1.4 5.8,-3.4 7,-5.9 2.3,-5 4.2,-10.5 4.8,-15.9 1,-9.2 0.9,-18.6 1.4,-27.9 0.1,-2.8 0.4,-5.5 0.7,-7.8 z m 180.8,229.3 c 0.9,4.9 1.5,9.8 2.7,14.6 2.2,9.4 9.1,14.6 18.6,13.8 8.8,-0.8 17.5,-1.8 26.2,-3.3 7.9,-1.4 15.6,-3.7 23.1,-5.6 -3.6,-4.9 -7.5,-8.7 -9.7,-13.4 -2.9,-6 -7.3,-9.5 -13.6,-10.3 -4.7,-0.6 -9.6,-0.6 -14.3,-0.1 -11,1.3 -22,2.9 -33,4.3 z m -179.7,-310.3 c 6.5,1.5 11.8,1.9 16.3,4 6.9,3.3 12.9,2.3 18.9,-1.5 3,-1.9 5.9,-4.4 8.4,-7 8,-8.6 15.9,-17.3 23.6,-25.8 -3.5,-3 -6.8,-5.9 -10.3,-8.7 -7.8,-6.5 -17,-6.2 -24.3,0.8 -3.1,3 -6.3,5.9 -9.1,9.3 -7.8,9.3 -15.4,18.9 -23.5,28.9 z m 245.3,300.8 c 2.2,3.8 4.4,7.6 6.6,11.5 5,8.8 14.7,12.4 23.5,7.7 13.1,-7 25.9,-14.8 38.8,-22.4 1.3,-0.8 2.5,-1.9 3.8,-3 -4.5,-2.7 -9.2,-4.4 -12.1,-7.7 -7.8,-8.7 -17.1,-8 -26,-4.1 -12,5.4 -23.3,12 -34.6,18 z m 67.2,-323.9 c 2.3,-3.9 4.6,-7.7 6.8,-11.5 4.9,-8.6 2.9,-18.3 -4.9,-23.9 -3.8,-2.7 -7.5,-5.5 -11.6,-7.8 -10.4,-5.9 -21,-11.7 -32.5,-17.9 0,6.5 1.1,11.7 -0.2,16.2 -3.5,11.5 2.3,18.8 10.4,24.6 10.2,7.4 21.2,13.6 32,20.3 z m -254.2,285.1 c -2.1,3.6 -4,7.3 -6.2,10.8 -5.6,9.1 -3.9,19.1 4.9,25 8.4,5.6 17,11 25.8,16.1 5.5,3.2 11.5,5.6 17.7,8.7 0,-5.7 -1.2,-10.8 0.2,-15.2 3.6,-11.5 -2,-19 -10.1,-24.8 -10.3,-7.5 -21.5,-13.8 -32.3,-20.6 z m 295.1,-232.9 c 3.7,-3.1 7.4,-5.9 10.8,-9 7.6,-6.7 9,-15.8 3.2,-23.7 -6.9,-9.3 -14.3,-18.3 -21.7,-27.3 -3.2,-3.9 -7.1,-7.2 -10.6,-10.7 -2.3,5.4 -3.5,10.5 -6.4,14.5 -4.5,6.2 -4.8,12.5 -1.9,18.8 2.3,4.9 5.6,9.3 8.8,13.7 5.9,8.1 11.9,15.9 17.8,23.7 z m -232.9,-119.7 c 3.3,4.1 7.2,7.5 9,11.7 4.5,10.8 13.3,13.3 23.2,12.5 12.9,-1 25.6,-3.3 38.4,-5 -0.8,-4.7 -1.4,-9.6 -2.5,-14.4 -1.7,-7.5 -8.6,-14.4 -14.1,-14.2 -18.4,0.8 -36.4,3.9 -54,9.4 z m 283.1,183.5 c -6.9,3 -13.4,5.4 -19.5,8.5 -2.2,1.1 -4.6,3.3 -5.5,5.5 -2.1,5.3 -4,10.9 -4.7,16.6 -0.9,7.1 -0.4,14.3 -0.8,21.5 -0.2,4.6 -0.8,9.1 -1.2,13.7 3.7,-0.2 6.9,-0.8 10,-0.5 14,1 21.2,-4.7 22.4,-18.6 1.4,-15.7 1.3,-31.3 -0.7,-46.7 z M 413,317.997 c -2.6,-4.5 -4.7,-8.6 -7.1,-12.5 -5.1,-8.6 -14.5,-11.9 -23.2,-7.2 -13.1,7.1 -25.9,14.8 -38.8,22.3 -1.5,0.9 -2.7,2.2 -3.8,3 4.5,2.9 9.4,4.9 12.7,8.3 5.6,5.8 12.2,7.9 19,5.1 14.1,-5.7 27.6,-12.6 41.2,-19 z m 244.2,300 c -5.2,-1.1 -10.2,-1 -14.1,-3.1 -10.5,-5.6 -19,-1.7 -26.2,5.3 -9.1,8.8 -17.2,18.5 -25.7,27.8 -0.2,0.2 -0.1,0.6 0,0.6 3.3,2.8 6.4,5.5 9.5,8.2 5.6,4.8 16.7,7.2 20.4,3.9 13.9,-12.4 25.7,-26.7 36.1,-42.7 z m -352.7,-28.8 c -3.2,2.7 -6.3,5.4 -9.6,8 -8.2,6.5 -10,16.4 -4.2,24.8 3.7,5.3 7.4,10.7 11.6,15.6 6.7,7.7 13.8,15.1 20.8,22.8 2.1,-5.4 3.1,-10.4 5.9,-14.1 7.2,-9.5 4.5,-18.5 -1.1,-26.7 -7.3,-10.7 -15.7,-20.4 -23.4,-30.4 z"
     style="fill:#ff4d59;fill-opacity:1" /><path
     inkscape:connector-curvature="0"
     id="path23"
     d="m 365.5,497.697 c 4.8,-2.8 9.6,-5.7 14.4,-8.5 22.6,-13 32.4,-37.1 25.3,-62.3 -0.5,-1.9 -0.9,-3.8 -1.5,-6.5 2.2,0 4,0 5.8,0 41,0 82,-0.1 122.9,0.1 3,0 6.6,1.2 9,3.1 24.2,18.7 29,44.2 21.2,72 -0.3,1.2 -2.3,2.2 -3.7,2.9 -0.8,0.4 -2,0.1 -3,0.1 -61.8,0 -123.6,0 -185.4,0 -1.6,0 -3.2,0 -4.8,0 -0.1,-0.3 -0.1,-0.6 -0.2,-0.9 z"
     style="fill:#ff4d59;fill-opacity:1" /><path
     inkscape:connector-curvature="0"
     id="path25"
     d="m 558.5,504.097 c -3.4,5.5 -6.1,10.3 -9.2,14.9 -7.5,11.2 -14.9,22.5 -22.7,33.5 -1.6,2.3 -4.5,4.5 -7.2,5.3 -30.8,8.8 -61.5,17.9 -92.5,25.6 -14.4,3.6 -29.5,4.8 -44.3,5.8 -13.7,0.9 -27.6,0.2 -41.9,-0.9 4.2,-2.8 8.1,-5.9 12.5,-8.3 17.9,-9.8 30.3,-23.7 34.5,-44 1.8,-8.8 -0.7,-16.4 -7.7,-22.4 -3.3,-2.8 -6.4,-5.8 -10.3,-9.4 63,-0.1 125.2,-0.1 188.8,-0.1 z"
     style="fill:#ff4d59;fill-opacity:1" /><path
     inkscape:connector-curvature="0"
     id="path27"
     d="m 404.2,413.997 c 4.3,-3.3 8.7,-6.6 13,-10 10.4,-8.3 12.8,-15.9 8.5,-28.6 -1.9,-5.5 -4.5,-10.7 -6.8,-16.1 -0.8,-1.8 -1.6,-3.5 -2.7,-5.9 2.2,0 3.7,0 5.2,0 31,0 62,-0.1 93,0.1 3,0 6.5,1.4 8.9,3.3 18.3,14.3 21.9,34.6 15.3,55.7 -0.4,1.2 -2.8,2.4 -4.3,2.5 -8,0.2 -16,0.1 -24,0.1 -33.5,0 -67,0 -100.5,0 -1.8,0 -3.6,0 -5.3,0 -0.1,-0.3 -0.2,-0.7 -0.3,-1.1 z"
     style="fill:#ff4d59;fill-opacity:1" /></svg>